<svg width="101" height="29" viewBox="0 0 101 29" fill="none" xmlns="http://www.w3.org/2000/svg">
<path d="M100.307 25.5571C100.307 27.0966 99.0338 28.3437 97.4592 28.3437H4.26932C2.69547 28.3437 1.41797 27.0966 1.41797 25.5571V3.33513C1.41797 1.79633 2.69547 0.544922 4.26932 0.544922H97.4585C99.0338 0.544922 100.306 1.79633 100.306 3.33513L100.307 25.5571Z" fill="black"/>
<path d="M97.1596 0.578463C98.8744 0.578463 100.27 1.93895 100.27 3.61089V25.2776C100.27 26.9495 98.8744 28.31 97.1596 28.31H4.56698C2.85217 28.31 1.4568 26.9495 1.4568 25.2776V3.61089C1.4568 1.93895 2.85217 0.578463 4.56698 0.578463H97.1596ZM97.1596 -0.000216537H4.56698C2.53087 -0.000216537 0.863281 1.62569 0.863281 3.61089V25.2776C0.863281 27.2628 2.53087 28.8887 4.56698 28.8887H97.1596C99.1957 28.8887 100.863 27.2628 100.863 25.2776V3.61089C100.863 1.62569 99.1957 -0.000216537 97.1596 -0.000216537Z" fill="#A6A6A6"/>
<path d="M23.1794 14.2886C23.158 11.9609 25.1343 10.8285 25.2246 10.7757C24.1054 9.18468 22.3706 8.96729 21.7609 8.94996C20.3039 8.80046 18.8906 9.80001 18.1483 9.80001C17.3913 9.80001 16.2483 8.9644 15.0165 8.98896C13.4313 9.01279 11.9483 9.90762 11.135 11.2972C9.45648 14.1305 10.7083 18.2941 12.3165 20.5842C13.1209 21.7058 14.0609 22.9582 15.2913 22.9141C16.495 22.8657 16.9446 22.1659 18.3972 22.1659C19.8365 22.1659 20.2587 22.9141 21.5135 22.886C22.8054 22.8657 23.6187 21.7593 24.395 20.6276C25.3246 19.342 25.698 18.076 25.7128 18.011C25.6824 18.0008 23.2039 17.0786 23.1794 14.2886Z" fill="white"/>
<path d="M20.8091 7.4434C21.4565 6.65401 21.8994 5.58007 21.7765 4.49023C20.8394 4.53068 19.6676 5.12218 18.9928 5.89423C18.3957 6.57457 17.8624 7.68968 18.0002 8.73835C19.0528 8.8149 20.1335 8.22051 20.8091 7.4434Z" fill="white"/>
<path d="M40.5996 22.7524H38.9173L37.9959 19.9293H34.7929L33.9151 22.7524H32.2773L35.4507 13.1411H37.4107L40.5996 22.7524ZM37.7181 18.7448L36.8848 16.2351C36.7966 15.9787 36.6314 15.3749 36.3877 14.4245H36.3581C36.261 14.8333 36.1047 15.4371 35.8899 16.2351L35.0714 18.7448H37.7181Z" fill="white"/>
<path d="M48.7592 19.2025C48.7592 20.3811 48.4326 21.3128 47.7792 21.9967C47.1941 22.6056 46.4674 22.9096 45.6 22.9096C44.6637 22.9096 43.9911 22.5817 43.5815 21.926H43.5518V25.5768H41.9726V18.104C41.9726 17.363 41.9526 16.6025 41.9141 15.8225H43.303L43.3911 16.921H43.4207C43.9474 16.0933 44.7467 15.6802 45.8192 15.6802C46.6578 15.6802 47.3578 16.003 47.9178 16.6494C48.4792 17.2965 48.7592 18.1473 48.7592 19.2025ZM47.1504 19.2588C47.1504 18.5842 46.9948 18.0281 46.6822 17.5905C46.3407 17.134 45.8822 16.9058 45.3074 16.9058C44.9178 16.9058 44.5637 17.0329 44.2474 17.2835C43.9304 17.5363 43.7229 17.8663 43.6259 18.2751C43.577 18.4658 43.5526 18.6218 43.5526 18.7446V19.9001C43.5526 20.4042 43.7111 20.8296 44.0281 21.177C44.3452 21.5244 44.757 21.6977 45.2637 21.6977C45.8585 21.6977 46.3215 21.4738 46.6526 21.0275C46.9844 20.5805 47.1504 19.9911 47.1504 19.2588Z" fill="white"/>
<path d="M56.9362 19.2025C56.9362 20.3811 56.6096 21.3128 55.9555 21.9967C55.3711 22.6056 54.6444 22.9096 53.777 22.9096C52.8407 22.9096 52.1681 22.5817 51.7592 21.926H51.7296V25.5768H50.1503V18.104C50.1503 17.363 50.1303 16.6025 50.0918 15.8225H51.4807L51.5688 16.921H51.5985C52.1244 16.0933 52.9237 15.6802 53.997 15.6802C54.8348 15.6802 55.5348 16.003 56.0962 16.6494C56.6555 17.2965 56.9362 18.1473 56.9362 19.2025ZM55.3274 19.2588C55.3274 18.5842 55.1711 18.0281 54.8585 17.5905C54.517 17.134 54.0599 16.9058 53.4844 16.9058C53.094 16.9058 52.7407 17.0329 52.4237 17.2835C52.1066 17.5363 51.8999 17.8663 51.8029 18.2751C51.7548 18.4658 51.7296 18.6218 51.7296 18.7446V19.9001C51.7296 20.4042 51.8881 20.8296 52.2036 21.177C52.5207 21.5237 52.9325 21.6977 53.4407 21.6977C54.0355 21.6977 54.4985 21.4738 54.8296 21.0275C55.1614 20.5805 55.3274 19.9911 55.3274 19.2588Z" fill="white"/>
<path d="M66.0765 20.0573C66.0765 20.8749 65.7854 21.54 65.2009 22.0535C64.5587 22.6147 63.6646 22.8949 62.5158 22.8949C61.455 22.8949 60.6046 22.6956 59.9609 22.2962L60.3269 21.0128C61.0202 21.4216 61.7809 21.6267 62.6098 21.6267C63.2046 21.6267 63.6676 21.4953 64.0002 21.2338C64.3313 20.9724 64.4965 20.6214 64.4965 20.1837C64.4965 19.7937 64.3602 19.4651 64.0869 19.1986C63.815 18.9321 63.3609 18.6844 62.7269 18.4554C61.0009 17.8278 60.1387 16.9084 60.1387 15.6994C60.1387 14.9093 60.4409 14.2615 61.0461 13.7574C61.6491 13.2525 62.4535 13.0005 63.4595 13.0005C64.3565 13.0005 65.1017 13.1529 65.6965 13.4569L65.3017 14.7122C64.7461 14.4175 64.118 14.2702 63.415 14.2702C62.8595 14.2702 62.4254 14.4038 62.1143 14.6695C61.8513 14.9072 61.7195 15.1968 61.7195 15.5398C61.7195 15.9197 61.8698 16.2339 62.172 16.4809C62.435 16.7091 62.9128 16.9561 63.6061 17.2226C64.4543 17.5555 65.0772 17.9448 65.478 18.3912C65.8772 18.836 66.0765 19.3929 66.0765 20.0573Z" fill="white"/>
<path d="M71.2976 16.9776H69.5569V20.3424C69.5569 21.1983 69.8636 21.6258 70.4784 21.6258C70.7606 21.6258 70.9947 21.602 71.1799 21.5543L71.2236 22.7236C70.9125 22.837 70.5028 22.894 69.9954 22.894C69.3717 22.894 68.8843 22.7084 68.5325 22.3379C68.1821 21.9667 68.0058 21.3442 68.0058 20.4695V16.9762H66.9688V15.8206H68.0058V14.5517L69.5569 14.0952V15.8206H71.2976V16.9776Z" fill="white"/>
<path d="M79.1517 19.2304C79.1517 20.2957 78.8391 21.1703 78.2154 21.8542C77.5613 22.5584 76.6932 22.9094 75.6109 22.9094C74.568 22.9094 73.7376 22.5721 73.1183 21.8976C72.4991 21.223 72.1895 20.3715 72.1895 19.3452C72.1895 18.2713 72.508 17.3916 73.1472 16.7077C73.785 16.023 74.6457 15.6807 75.728 15.6807C76.7709 15.6807 77.6102 16.0179 78.2435 16.6932C78.8494 17.3483 79.1517 18.194 79.1517 19.2304ZM77.5132 19.2802C77.5132 18.6411 77.3732 18.0929 77.0894 17.6357C76.7583 17.0825 76.285 16.8066 75.6717 16.8066C75.0369 16.8066 74.5546 17.0832 74.2235 17.6357C73.9398 18.0936 73.7998 18.6504 73.7998 19.3091C73.7998 19.9483 73.9398 20.4964 74.2235 20.9529C74.565 21.5061 75.042 21.782 75.6576 21.782C76.2606 21.782 76.7339 21.5003 77.0754 20.9384C77.3665 20.4726 77.5132 19.9187 77.5132 19.2802Z" fill="white"/>
<path d="M84.2854 17.1766C84.1291 17.1485 83.9624 17.134 83.7876 17.134C83.2321 17.134 82.8024 17.3384 82.5002 17.7479C82.2372 18.109 82.1054 18.5655 82.1054 19.1165V22.7529H80.5269L80.5417 18.005C80.5417 17.2062 80.5217 16.479 80.4824 15.8232H81.858L81.9158 17.1492H81.9595C82.1261 16.6935 82.3891 16.3266 82.7491 16.0514C83.101 15.8037 83.481 15.6802 83.8906 15.6802C84.0365 15.6802 84.1684 15.6903 84.2854 15.7083V17.1766Z" fill="white"/>
<path d="M91.3483 18.9596C91.3483 19.2355 91.3298 19.468 91.2905 19.658H86.5527C86.5712 20.3427 86.8001 20.8663 87.2401 21.2274C87.6394 21.5502 88.1557 21.712 88.7898 21.712C89.4912 21.712 90.1312 21.6029 90.7068 21.3841L90.9542 22.453C90.2816 22.739 89.4875 22.8813 88.5712 22.8813C87.469 22.8813 86.6038 22.5649 85.9742 21.933C85.3461 21.301 85.0312 20.4524 85.0312 19.3879C85.0312 18.3428 85.3238 17.4725 85.9098 16.7785C86.5231 16.0375 87.352 15.667 88.3949 15.667C89.4194 15.667 90.1949 16.0375 90.7216 16.7785C91.1386 17.3671 91.3483 18.0951 91.3483 18.9596ZM89.8424 18.5602C89.8527 18.1038 89.7498 17.7094 89.5357 17.3765C89.2624 16.9482 88.8424 16.7344 88.2772 16.7344C87.7609 16.7344 87.3409 16.9432 87.0201 17.362C86.7572 17.695 86.6009 18.0944 86.5527 18.5595H89.8424V18.5602Z" fill="white"/>
<path d="M37.1956 7.22872C37.1956 8.07878 36.9341 8.71867 36.4119 9.14839C35.9282 9.54489 35.2408 9.7435 34.3504 9.7435C33.9089 9.7435 33.5311 9.72473 33.2148 9.68717V5.04256C33.6274 4.97756 34.0719 4.94434 34.5519 4.94434C35.4 4.94434 36.0393 5.12417 36.4704 5.48384C36.9534 5.89045 37.1956 6.47184 37.1956 7.22872ZM36.3771 7.24967C36.3771 6.69861 36.2274 6.27611 35.9282 5.98145C35.6289 5.6875 35.1919 5.54017 34.6163 5.54017C34.3719 5.54017 34.1637 5.55606 33.9911 5.58928V9.12022C34.0867 9.13467 34.2615 9.14117 34.5156 9.14117C35.1097 9.14117 35.5682 8.98011 35.8911 8.658C36.2141 8.33589 36.3771 7.86645 36.3771 7.24967Z" fill="white"/>
<path d="M41.5352 7.97098C41.5352 8.49459 41.3819 8.92359 41.0752 9.26015C40.7538 9.60609 40.3278 9.7787 39.796 9.7787C39.2834 9.7787 38.8752 9.61332 38.5708 9.28109C38.2671 8.94959 38.1152 8.53143 38.1152 8.02732C38.1152 7.50009 38.2715 7.06748 38.5856 6.73165C38.8997 6.39582 39.3219 6.22754 39.8538 6.22754C40.3663 6.22754 40.7782 6.39293 41.0901 6.72443C41.3863 7.04654 41.5352 7.46254 41.5352 7.97098ZM40.7301 7.99554C40.7301 7.68137 40.6604 7.41198 40.5219 7.18737C40.3589 6.91582 40.1271 6.78004 39.8256 6.78004C39.5138 6.78004 39.2767 6.91582 39.1138 7.18737C38.9745 7.41198 38.9056 7.68571 38.9056 8.00926C38.9056 8.32343 38.9752 8.59282 39.1138 8.81743C39.2819 9.08898 39.516 9.22476 39.8182 9.22476C40.1145 9.22476 40.3471 9.08682 40.5145 8.81021C40.6582 8.58126 40.7301 8.30971 40.7301 7.99554Z" fill="white"/>
<path d="M47.3542 6.29688L46.2616 9.70143H45.5505L45.0979 8.22304C44.9831 7.85399 44.8897 7.4871 44.8171 7.1231H44.8031C44.7357 7.49721 44.6423 7.86337 44.5223 8.22304L44.0416 9.70143H43.3223L42.2949 6.29688H43.0927L43.4875 7.91538C43.5831 8.29815 43.6616 8.66287 43.7246 9.0081H43.7386C43.7964 8.72354 43.892 8.36099 44.0268 7.9226L44.5223 6.2976H45.1549L45.6297 7.88793C45.7445 8.27576 45.8379 8.64915 45.9097 9.00882H45.9312C45.9838 8.65854 46.0631 8.28515 46.1683 7.88793L46.592 6.2976H47.3542V6.29688Z" fill="white"/>
<path d="M51.3791 9.70164H50.6028V7.75164C50.6028 7.15075 50.3687 6.85031 49.8991 6.85031C49.6687 6.85031 49.4828 6.93264 49.3384 7.09803C49.1954 7.26342 49.1228 7.45842 49.1228 7.68159V9.70092H48.3465V7.26992C48.3465 6.97092 48.3369 6.64664 48.3184 6.29564H49.0006L49.0369 6.82792H49.0584C49.1487 6.66253 49.2835 6.52603 49.4606 6.41698C49.6709 6.28986 49.9065 6.22559 50.1643 6.22559C50.4902 6.22559 50.7613 6.32814 50.9769 6.53397C51.245 6.78603 51.3791 7.16231 51.3791 7.66209V9.70164Z" fill="white"/>
<path d="M53.5197 9.70159H52.7441V4.73486H53.5197V9.70159Z" fill="white"/>
<path d="M58.0899 7.97098C58.0899 8.49459 57.9366 8.92359 57.6299 9.26015C57.3084 9.60609 56.8818 9.7787 56.3507 9.7787C55.8373 9.7787 55.4292 9.61332 55.1255 9.28109C54.8218 8.94959 54.6699 8.53143 54.6699 8.02732C54.6699 7.50009 54.8262 7.06748 55.1403 6.73165C55.4544 6.39582 55.8766 6.22754 56.4077 6.22754C56.921 6.22754 57.3321 6.39293 57.6447 6.72443C57.941 7.04654 58.0899 7.46254 58.0899 7.97098ZM57.284 7.99554C57.284 7.68137 57.2144 7.41198 57.0758 7.18737C56.9136 6.91582 56.681 6.78004 56.3803 6.78004C56.0677 6.78004 55.8307 6.91582 55.6684 7.18737C55.5292 7.41198 55.4603 7.68571 55.4603 8.00926C55.4603 8.32343 55.5299 8.59282 55.6684 8.81743C55.8366 9.08898 56.0707 9.22476 56.3729 9.22476C56.6692 9.22476 56.901 9.08682 57.0684 8.81021C57.2129 8.58126 57.284 8.30971 57.284 7.99554Z" fill="white"/>
<path d="M61.8471 9.70143H61.1501L61.0923 9.30926H61.0708C60.8323 9.62198 60.4923 9.7787 60.0508 9.7787C59.7212 9.7787 59.4545 9.67543 59.2538 9.47032C59.0716 9.28398 58.9805 9.05215 58.9805 8.77698C58.9805 8.36098 59.1582 8.04393 59.516 7.82437C59.8731 7.60482 60.3753 7.49721 61.022 7.50226V7.43871C61.022 6.99021 60.7805 6.76632 60.2968 6.76632C59.9523 6.76632 59.6486 6.85082 59.3864 7.01837L59.2286 6.52148C59.5531 6.32576 59.9538 6.22754 60.4264 6.22754C61.339 6.22754 61.7968 6.69698 61.7968 7.63587V8.88965C61.7968 9.22982 61.8138 9.50065 61.8471 9.70143ZM61.0412 8.53143V8.00637C60.1849 7.99193 59.7568 8.22087 59.7568 8.69248C59.7568 8.87015 59.8057 9.00304 59.9057 9.09187C60.0057 9.1807 60.1331 9.22476 60.2849 9.22476C60.4553 9.22476 60.6145 9.17204 60.7597 9.06732C60.9057 8.96187 60.9953 8.82826 61.0286 8.66432C61.0368 8.62748 61.0412 8.58271 61.0412 8.53143Z" fill="white"/>
<path d="M66.2591 9.70159H65.5702L65.5339 9.15486H65.5124C65.2924 9.57086 64.9176 9.77886 64.391 9.77886C63.9702 9.77886 63.6199 9.61781 63.3421 9.2957C63.0643 8.97359 62.9258 8.55542 62.9258 8.04192C62.9258 7.49086 63.0762 7.04453 63.3784 6.70364C63.671 6.38586 64.0295 6.22697 64.4561 6.22697C64.925 6.22697 65.2532 6.38081 65.4398 6.6892H65.4547V4.73486H66.2317V8.78436C66.2317 9.11586 66.2406 9.42136 66.2591 9.70159ZM65.4547 8.26581V7.69814C65.4547 7.59992 65.4473 7.52047 65.4332 7.45981C65.3895 7.27781 65.2954 7.1247 65.1524 7.0012C65.008 6.8777 64.8339 6.81559 64.6332 6.81559C64.3436 6.81559 64.1169 6.92753 63.9502 7.15214C63.785 7.37675 63.7013 7.66347 63.7013 8.01375C63.7013 8.35031 63.7806 8.62331 63.9399 8.83347C64.108 9.05736 64.3347 9.16931 64.6184 9.16931C64.8732 9.16931 65.0769 9.07614 65.2317 8.88909C65.3813 8.71647 65.4547 8.50847 65.4547 8.26581Z" fill="white"/>
<path d="M72.8985 7.97098C72.8985 8.49459 72.7452 8.92359 72.4385 9.26015C72.117 9.60609 71.6918 9.7787 71.1593 9.7787C70.6474 9.7787 70.2393 9.61332 69.9341 9.28109C69.6304 8.94959 69.4785 8.53143 69.4785 8.02732C69.4785 7.50009 69.6348 7.06748 69.9489 6.73165C70.263 6.39582 70.6852 6.22754 71.2178 6.22754C71.7296 6.22754 72.1422 6.39293 72.4533 6.72443C72.7496 7.04654 72.8985 7.46254 72.8985 7.97098ZM72.0941 7.99554C72.0941 7.68137 72.0244 7.41198 71.8859 7.18737C71.7222 6.91582 71.4911 6.78004 71.1889 6.78004C70.8778 6.78004 70.6407 6.91582 70.477 7.18737C70.3378 7.41198 70.2689 7.68571 70.2689 8.00926C70.2689 8.32343 70.3385 8.59282 70.477 8.81743C70.6452 9.08898 70.8793 9.22476 71.1815 9.22476C71.4778 9.22476 71.7111 9.08682 71.8785 8.81021C72.0215 8.58126 72.0941 8.30971 72.0941 7.99554Z" fill="white"/>
<path d="M77.0717 9.70164H76.2962V7.75164C76.2962 7.15075 76.0621 6.85031 75.5917 6.85031C75.3613 6.85031 75.1754 6.93264 75.0317 7.09803C74.888 7.26342 74.8162 7.45842 74.8162 7.68159V9.70092H74.0391V7.26992C74.0391 6.97092 74.0302 6.64664 74.0117 6.29564H74.6932L74.7295 6.82792H74.751C74.8421 6.66253 74.9769 6.52603 75.1532 6.41698C75.3643 6.28986 75.5991 6.22559 75.8576 6.22559C76.1828 6.22559 76.4539 6.32814 76.6695 6.53397C76.9384 6.78603 77.0717 7.16231 77.0717 7.66209V9.70164Z" fill="white"/>
<path d="M82.2966 6.86405H81.4418V8.51794C81.4418 8.93827 81.5936 9.14844 81.8944 9.14844C82.0336 9.14844 82.1492 9.13689 82.2403 9.11305L82.2603 9.68722C82.107 9.74355 81.9055 9.77172 81.6573 9.77172C81.3507 9.77172 81.1121 9.68072 80.9395 9.49872C80.7662 9.31672 80.6803 9.0105 80.6803 8.58077V6.86405H80.1699V6.29711H80.6803V5.67311L81.441 5.44922V6.29639H82.2958V6.86405H82.2966Z" fill="white"/>
<path d="M86.4057 9.70159H85.6286V7.76603C85.6286 7.15575 85.3945 6.85025 84.9256 6.85025C84.5656 6.85025 84.3197 7.0272 84.1849 7.38109C84.1619 7.45547 84.1486 7.54647 84.1486 7.65336V9.70086H83.373V4.73486H84.1486V6.7867H84.1634C84.4079 6.41331 84.7582 6.22697 85.2123 6.22697C85.5338 6.22697 85.7997 6.32953 86.0108 6.53536C86.2738 6.79175 86.4057 7.17309 86.4057 7.6772V9.70159Z" fill="white"/>
<path d="M90.6455 7.83825C90.6455 7.97402 90.6351 8.08814 90.6166 8.1813H88.2884C88.2988 8.51786 88.4099 8.77425 88.6255 8.95191C88.8225 9.1108 89.0766 9.19025 89.3877 9.19025C89.7321 9.19025 90.0462 9.1368 90.3292 9.02919L90.4506 9.55497C90.1195 9.69508 89.7299 9.76514 89.2788 9.76514C88.7381 9.76514 88.3121 9.60986 88.004 9.2993C87.6943 8.98875 87.541 8.57202 87.541 8.04914C87.541 7.53564 87.684 7.10808 87.9721 6.76719C88.2729 6.40319 88.6795 6.22119 89.1929 6.22119C89.6951 6.22119 90.0766 6.40319 90.3343 6.76719C90.5425 7.05608 90.6455 7.41358 90.6455 7.83825ZM89.9047 7.64252C89.9106 7.41791 89.8595 7.22436 89.7543 7.06114C89.6195 6.85097 89.4143 6.74552 89.1366 6.74552C88.8832 6.74552 88.6766 6.84808 88.5188 7.05391C88.3899 7.21786 88.3136 7.41358 88.2884 7.64252H89.9047Z" fill="white"/>
</svg>
