<svg width="101" height="30" viewBox="0 0 101 30" fill="none" xmlns="http://www.w3.org/2000/svg">
<path d="M97.1596 29.8174H4.56698C2.53087 29.8174 0.863281 28.1892 0.863281 26.2013V4.50482C0.863281 2.51688 2.53087 0.888736 4.56698 0.888736H97.1596C99.1957 0.888736 100.863 2.51688 100.863 4.50482V26.2013C100.863 28.1892 99.1957 29.8174 97.1596 29.8174Z" fill="black"/>
<path d="M97.1596 1.46821C98.8744 1.46821 100.27 2.83057 100.27 4.50482V26.2013C100.27 27.8755 98.8744 29.2379 97.1596 29.2379H4.56698C2.85217 29.2379 1.4568 27.8755 1.4568 26.2013V4.50482C1.4568 2.83057 2.85217 1.46821 4.56698 1.46821H97.1596ZM97.1596 0.888736H4.56698C2.53087 0.888736 0.863281 2.51688 0.863281 4.50482V26.2013C0.863281 28.1892 2.53087 29.8174 4.56698 29.8174H97.1596C99.1957 29.8174 100.863 28.1892 100.863 26.2013V4.50482C100.863 2.51688 99.1957 0.888736 97.1596 0.888736Z" fill="#A6A6A6"/>
<path d="M35.9867 8.29708C35.9867 8.90097 35.8015 9.38462 35.4367 9.74532C35.0173 10.1729 34.471 10.3881 33.8015 10.3881C33.1617 10.3881 32.6154 10.1693 32.1673 9.73809C31.7182 9.30054 31.4941 8.76356 31.4941 8.1208C31.4941 7.47804 31.7182 6.94105 32.1673 6.50712C32.6154 6.07229 33.1617 5.85352 33.8015 5.85352C34.1201 5.85352 34.4238 5.9177 34.7136 6.03703C35.0025 6.15727 35.2377 6.31999 35.408 6.52068L35.021 6.90218C34.7238 6.55956 34.3191 6.3905 33.8015 6.3905C33.3349 6.3905 32.9303 6.54961 32.5867 6.87054C32.2469 7.19237 32.0765 7.60912 32.0765 8.1208C32.0765 8.63247 32.2469 9.05284 32.5867 9.37467C32.9303 9.69198 33.3349 9.85471 33.8015 9.85471C34.2969 9.85471 34.7136 9.69198 35.0423 9.37106C35.259 9.15861 35.3821 8.86571 35.4145 8.49145H33.8015V7.96892H35.9534C35.9793 8.08193 35.9867 8.19131 35.9867 8.29708Z" fill="white" stroke="white" stroke-width="0.16" stroke-miterlimit="10"/>
<path d="M39.4021 6.48559H37.3808V7.8597H39.203V8.38223H37.3808V9.75634H39.4021V10.2888H36.8086V5.95312H39.4021V6.48559Z" fill="white" stroke="white" stroke-width="0.16" stroke-miterlimit="10"/>
<path d="M41.8101 10.2888H41.2379V6.48559H39.998V5.95312H43.0508V6.48559H41.8101V10.2888Z" fill="white" stroke="white" stroke-width="0.16" stroke-miterlimit="10"/>
<path d="M45.2598 10.2888V5.95312H45.8311V10.2888H45.2598Z" fill="white" stroke="white" stroke-width="0.16" stroke-miterlimit="10"/>
<path d="M48.3648 10.2888H47.7972V6.48559H46.5527V5.95312H49.6092V6.48559H48.3648V10.2888Z" fill="white" stroke="white" stroke-width="0.16" stroke-miterlimit="10"/>
<path d="M55.3885 9.73086C54.9505 10.1693 54.4079 10.3881 53.7607 10.3881C53.1098 10.3881 52.5672 10.1693 52.1292 9.73086C51.6922 9.29331 51.4746 8.75632 51.4746 8.1208C51.4746 7.48527 51.6922 6.94828 52.1292 6.51074C52.5672 6.07229 53.1098 5.85352 53.7607 5.85352C54.4042 5.85352 54.9468 6.07229 55.3848 6.51435C55.8255 6.95552 56.0431 7.48889 56.0431 8.1208C56.0431 8.75632 55.8255 9.29331 55.3885 9.73086ZM52.5524 9.36744C52.882 9.69199 53.2829 9.85471 53.7607 9.85471C54.2348 9.85471 54.6394 9.69199 54.9654 9.36744C55.2941 9.0429 55.4607 8.62615 55.4607 8.1208C55.4607 7.61545 55.2941 7.1987 54.9654 6.87415C54.6394 6.54961 54.2348 6.38689 53.7607 6.38689C53.2829 6.38689 52.882 6.54961 52.5524 6.87415C52.2237 7.1987 52.057 7.61545 52.057 8.1208C52.057 8.62615 52.2237 9.0429 52.5524 9.36744Z" fill="white" stroke="white" stroke-width="0.16" stroke-miterlimit="10"/>
<path d="M56.8457 10.2888V5.95312H57.5401L59.6994 9.32512H59.7244L59.6994 8.49161V5.95312H60.2707V10.2888H59.6744L57.4133 6.75047H57.3883L57.4133 7.58759V10.2888H56.8457Z" fill="white" stroke="white" stroke-width="0.16" stroke-miterlimit="10"/>
<path d="M51.334 16.6205C49.5942 16.6205 48.1729 17.9133 48.1729 19.6969C48.1729 21.4661 49.5942 22.7724 51.334 22.7724C53.0776 22.7724 54.4988 21.4661 54.4988 19.6969C54.4988 17.9133 53.0776 16.6205 51.334 16.6205ZM51.334 21.561C50.3794 21.561 49.5581 20.7917 49.5581 19.6969C49.5581 18.5877 50.3794 17.8319 51.334 17.8319C52.2887 17.8319 53.1137 18.5877 53.1137 19.6969C53.1137 20.7917 52.2887 21.561 51.334 21.561ZM44.4368 16.6205C42.6933 16.6205 41.2757 17.9133 41.2757 19.6969C41.2757 21.4661 42.6933 22.7724 44.4368 22.7724C46.1794 22.7724 47.5979 21.4661 47.5979 19.6969C47.5979 17.9133 46.1794 16.6205 44.4368 16.6205ZM44.4368 21.561C43.4813 21.561 42.6572 20.7917 42.6572 19.6969C42.6572 18.5877 43.4813 17.8319 44.4368 17.8319C45.3914 17.8319 46.2127 18.5877 46.2127 19.6969C46.2127 20.7917 45.3914 21.561 44.4368 21.561ZM36.2294 17.5634V18.8706H39.4266C39.3331 19.6011 39.0831 20.1381 38.6998 20.5123C38.2331 20.9644 37.5063 21.4661 36.2294 21.4661C34.2618 21.4661 32.7211 19.9157 32.7211 17.9947C32.7211 16.0736 34.2618 14.5232 36.2294 14.5232C37.2933 14.5232 38.0674 14.9291 38.6387 15.4553L39.5822 14.5341C38.7831 13.7892 37.7202 13.2169 36.2294 13.2169C33.5313 13.2169 31.2637 15.3603 31.2637 17.9947C31.2637 20.629 33.5313 22.7724 36.2294 22.7724C37.6877 22.7724 38.7831 22.3059 39.6442 21.4308C40.5266 20.5693 40.8016 19.3579 40.8016 18.3798C40.8016 18.076 40.7757 17.7967 40.7294 17.5634H36.2294ZM69.7905 18.5768C69.5303 17.8889 68.7275 16.6205 67.0924 16.6205C65.472 16.6205 64.1229 17.8672 64.1229 19.6969C64.1229 21.42 65.4581 22.7724 67.2479 22.7724C68.6951 22.7724 69.5303 21.9109 69.8738 21.4091L68.7998 20.7103C68.4414 21.222 67.9535 21.561 67.2479 21.561C66.547 21.561 66.0442 21.2473 65.722 20.629L69.9359 18.9267L69.7905 18.5768ZM65.4942 19.6011C65.4581 18.415 66.4377 17.8075 67.1396 17.8075C67.6896 17.8075 68.1562 18.076 68.3118 18.4602L65.4942 19.6011ZM62.0692 22.5853H63.4544V13.5451H62.0692V22.5853ZM59.8007 17.3058H59.7544C59.4433 16.946 58.8498 16.6205 58.0979 16.6205C56.5201 16.6205 55.0776 17.973 55.0776 19.7069C55.0776 21.4308 56.5201 22.7724 58.0979 22.7724C58.8498 22.7724 59.4433 22.4442 59.7544 22.0736H59.8007V22.5148C59.8007 23.6909 59.1572 24.3228 58.1192 24.3228C57.2729 24.3228 56.7479 23.7261 56.5313 23.2244L55.3266 23.7153C55.6738 24.5307 56.5933 25.5342 58.1192 25.5342C59.7433 25.5342 61.1137 24.6012 61.1137 22.3312V16.8077H59.8007V17.3058ZM58.2164 21.561C57.2618 21.561 56.4627 20.7808 56.4627 19.7069C56.4627 18.6229 57.2618 17.8319 58.2164 17.8319C59.1572 17.8319 59.8988 18.6229 59.8988 19.7069C59.8988 20.7808 59.1572 21.561 58.2164 21.561ZM76.2757 13.5451H72.9627V22.5853H74.3442V19.1599H76.2757C77.8099 19.1599 79.3146 18.076 79.3146 16.352C79.3146 14.629 77.8062 13.5451 76.2757 13.5451ZM76.3118 17.9024H74.3442V14.8026H76.3118C77.3433 14.8026 77.9322 15.6388 77.9322 16.352C77.9322 17.0518 77.3433 17.9024 76.3118 17.9024ZM84.8516 16.6034C83.8535 16.6034 82.8155 17.0337 82.3886 17.9874L83.6146 18.4892C83.8785 17.9874 84.3637 17.8247 84.8766 17.8247C85.5933 17.8247 86.3201 18.2451 86.3312 18.9873V19.0822C86.0812 18.9412 85.5461 18.7323 84.8877 18.7323C83.5674 18.7323 82.222 19.442 82.222 20.7664C82.222 21.9778 83.3035 22.7579 84.5192 22.7579C85.4488 22.7579 85.9618 22.3484 86.284 21.872H86.3312V22.5708H87.6655V19.103C87.6655 17.5002 86.4396 16.6034 84.8516 16.6034ZM84.6849 21.5574C84.2331 21.5574 83.6035 21.3386 83.6035 20.7917C83.6035 20.092 84.3887 19.8235 85.0683 19.8235C85.6766 19.8235 85.9618 19.9546 86.3312 20.1272C86.2229 20.9644 85.4849 21.5574 84.6849 21.5574ZM92.5266 16.8013L90.9386 20.7203H90.8914L89.2498 16.8013H87.7599L90.2266 22.2779L88.8192 25.3254H90.2627L94.0636 16.8013H92.5266ZM80.0738 22.5853H81.459V13.5451H80.0738V22.5853Z" fill="white"/>
<path d="M8.59352 6.34069C8.37593 6.56307 8.25 6.90931 8.25 7.35771V23.3516C8.25 23.8 8.37593 24.1463 8.59352 24.3687L8.64722 24.4175L17.8268 15.4586V15.2471L8.64722 6.28825L8.59352 6.34069Z" fill="url(#paint0_linear)"/>
<path d="M20.8827 18.4468L17.8262 15.459V15.2474L20.8864 12.2597L20.9549 12.2985L24.5789 14.3118C25.6132 14.8831 25.6132 15.8233 24.5789 16.3983L20.9549 18.4079L20.8827 18.4468Z" fill="url(#paint1_linear)"/>
<path d="M20.9558 18.4075L17.8271 15.3529L8.59375 24.3686C8.93727 24.7212 9.49745 24.7637 10.1345 24.4111L20.9558 18.4075Z" fill="url(#paint2_linear)"/>
<path d="M20.9558 12.2983L10.1345 6.29475C9.49745 5.94579 8.93727 5.98828 8.59375 6.34085L17.8271 15.353L20.9558 12.2983Z" fill="url(#paint3_linear)"/>
<defs>
<linearGradient id="paint0_linear" x1="17.0118" y1="23.5182" x2="4.87798" y2="11.0904" gradientUnits="userSpaceOnUse">
<stop stop-color="#00A0FF"/>
<stop offset="0.0066" stop-color="#00A1FF"/>
<stop offset="0.2601" stop-color="#00BEFF"/>
<stop offset="0.5122" stop-color="#00D2FF"/>
<stop offset="0.7604" stop-color="#00DFFF"/>
<stop offset="1" stop-color="#00E3FF"/>
</linearGradient>
<linearGradient id="paint1_linear" x1="25.9257" y1="15.3522" x2="8.0021" y2="15.3522" gradientUnits="userSpaceOnUse">
<stop stop-color="#FFE000"/>
<stop offset="0.4087" stop-color="#FFBD00"/>
<stop offset="0.7754" stop-color="#FFA500"/>
<stop offset="1" stop-color="#FF9C00"/>
</linearGradient>
<linearGradient id="paint2_linear" x1="19.2545" y1="13.6923" x2="2.80003" y2="-3.16089" gradientUnits="userSpaceOnUse">
<stop stop-color="#FF3A44"/>
<stop offset="1" stop-color="#C31162"/>
</linearGradient>
<linearGradient id="paint3_linear" x1="6.26953" y1="29.6899" x2="13.6172" y2="22.1643" gradientUnits="userSpaceOnUse">
<stop stop-color="#32A071"/>
<stop offset="0.0685" stop-color="#2DA771"/>
<stop offset="0.4762" stop-color="#15CF74"/>
<stop offset="0.8009" stop-color="#06E775"/>
<stop offset="1" stop-color="#00F076"/>
</linearGradient>
</defs>
</svg>
